<svg width="24" height="24" viewBox="0 0 24 24" fill="none" xmlns="http://www.w3.org/2000/svg">
<path d="M11.9993 7.89961V13.7996L14.3993 15.6496L13.4993 12.5996L15.7493 10.9996H12.9493L11.9993 7.89961ZM11.9993 16.2996L8.29933 19.1246C8.116 19.2746 7.916 19.3454 7.69933 19.3371C7.48266 19.3288 7.291 19.2663 7.12433 19.1496C6.95766 19.0329 6.8285 18.8746 6.73683 18.6746C6.64516 18.4746 6.641 18.2579 6.72433 18.0246L8.14933 13.3996L4.52433 10.8246C4.32433 10.6913 4.19933 10.5163 4.14933 10.2996C4.09933 10.0829 4.10766 9.88294 4.17433 9.69961C4.241 9.51628 4.35766 9.35378 4.52433 9.21211C4.691 9.07044 4.891 8.99961 5.12433 8.99961H9.59933L11.0493 4.19961C11.1327 3.96628 11.2618 3.78711 11.4368 3.66211C11.6118 3.53711 11.7993 3.47461 11.9993 3.47461C12.1993 3.47461 12.3868 3.53711 12.5618 3.66211C12.7368 3.78711 12.866 3.96628 12.9493 4.19961L14.3993 8.99961H18.8743C19.1077 8.99961 19.3077 9.07044 19.4743 9.21211C19.641 9.35378 19.7577 9.51628 19.8243 9.69961C19.891 9.88294 19.8993 10.0829 19.8493 10.2996C19.7993 10.5163 19.6743 10.6913 19.4743 10.8246L15.8493 13.3996L17.2743 18.0246C17.3577 18.2579 17.3535 18.4746 17.2618 18.6746C17.1702 18.8746 17.041 19.0329 16.8743 19.1496C16.7077 19.2663 16.516 19.3288 16.2993 19.3371C16.0827 19.3454 15.8827 19.2746 15.6993 19.1246L11.9993 16.2996Z" fill="white"/>
</svg>
