<svg width="32" height="32" viewBox="0 0 32 32" fill="none" xmlns="http://www.w3.org/2000/svg">
<path d="M5.57227 6.87573C5.57227 6.15585 6.15585 5.57227 6.87573 5.57227H25.1243C25.8442 5.57227 26.4277 6.15585 26.4277 6.87573V9.48267C26.4277 10.2026 25.8442 10.7861 25.1243 10.7861H6.87573C6.15585 10.7861 5.57227 10.2026 5.57227 9.48267V6.87573Z" stroke="#141413" stroke-width="1.51084" stroke-linecap="round" stroke-linejoin="round"/>
<path d="M5.57227 17.3035C5.57227 16.5836 6.15585 16 6.87573 16H14.6965C15.4164 16 16 16.5836 16 17.3035V25.1243C16 25.8442 15.4164 26.4277 14.6965 26.4277H6.87573C6.15585 26.4277 5.57227 25.8442 5.57227 25.1243V17.3035Z" stroke="#141413" stroke-width="1.51084" stroke-linecap="round" stroke-linejoin="round"/>
<path d="M21.2139 17.3035C21.2139 16.5836 21.7974 16 22.5173 16H25.1243C25.8442 16 26.4277 16.5836 26.4277 17.3035V25.1243C26.4277 25.8442 25.8442 26.4277 25.1243 26.4277H22.5173C21.7974 26.4277 21.2139 25.8442 21.2139 25.1243V17.3035Z" stroke="#141413" stroke-width="1.51084" stroke-linecap="round" stroke-linejoin="round"/>
</svg>
