<svg width="40" height="39" viewBox="0 0 40 39" fill="none" xmlns="http://www.w3.org/2000/svg">
<path d="M4.71481 19.5002C4.71481 11.1036 11.5216 4.29684 19.9182 4.29684C28.3147 4.29684 35.1215 11.1036 35.1215 19.5002C35.1215 27.8968 28.3147 34.7035 19.9182 34.7035C11.5216 34.7035 4.71481 27.8968 4.71481 19.5002Z" stroke="white" stroke-width="0.675704"/>
<g filter="url(#filter0_f_606_12431)">
<path d="M4.71481 19.5002C4.71481 11.1036 11.5216 4.29684 19.9182 4.29684C28.3147 4.29684 35.1215 11.1036 35.1215 19.5002C35.1215 27.8968 28.3147 34.7035 19.9182 34.7035C11.5216 34.7035 4.71481 27.8968 4.71481 19.5002Z" stroke="white" stroke-width="0.675704"/>
</g>
<path d="M27.2431 12.4976L12.2494 18.2795C11.2261 18.6905 11.232 19.2613 12.0616 19.5159L15.9111 20.7167L24.8177 15.0972C25.2389 14.841 25.6237 14.9788 25.3074 15.2596L18.0913 21.7721H18.0896L18.0913 21.773L17.8257 25.7409C18.2147 25.7409 18.3864 25.5624 18.6046 25.3519L20.4744 23.5337L24.3636 26.4064C25.0807 26.8013 25.5958 26.5984 25.7742 25.7426L28.3273 13.7103C28.5886 12.6625 27.9273 12.1881 27.2431 12.4976Z" fill="white"/>
<defs>
<filter id="filter0_f_606_12431" x="0.752951" y="0.334983" width="38.33" height="38.3305" filterUnits="userSpaceOnUse" color-interpolation-filters="sRGB">
<feFlood flood-opacity="0" result="BackgroundImageFix"/>
<feBlend mode="normal" in="SourceGraphic" in2="BackgroundImageFix" result="shape"/>
<feGaussianBlur stdDeviation="1.812" result="effect1_foregroundBlur_606_12431"/>
</filter>
</defs>
</svg>
