<svg width="149" height="130" viewBox="0 0 149 130" fill="none" xmlns="http://www.w3.org/2000/svg">
<path d="M66.9945 11.3422C70.5532 5.96438 78.4468 5.96438 82.0055 11.3422L129.777 83.5334C133.736 89.5164 129.446 97.5 122.271 97.5H26.7288C19.5545 97.5 15.2642 89.5163 19.2233 83.5334L66.9945 11.3422Z" fill="#E1FF00"/>
<path d="M70.3054 23.4654C72.2766 20.4271 76.7234 20.4271 78.6946 23.4654L116.689 82.0287C118.847 85.3552 116.46 89.75 112.494 89.75H36.5056C32.5403 89.75 30.1529 85.3552 32.311 82.0287L70.3054 23.4654Z" fill="#121211"/>
<rect x="71" y="35" width="7" height="26" rx="3" fill="#E1FF00"/>
<circle cx="74.5" cy="73.5" r="5.5" fill="#E1FF00"/>
</svg>
