<svg width="24" height="24" viewBox="0 0 24 24" fill="none" xmlns="http://www.w3.org/2000/svg">
<g id="Heart_favorite">
<path id="Icon" fill-rule="evenodd" clip-rule="evenodd" d="M8.41062 6.01085C7.86153 5.95227 7.30626 6.00803 6.77977 6.17459C6.25329 6.34116 5.767 6.61493 5.35151 6.97867C4.93603 7.34241 4.60037 7.78824 4.36565 8.28808C4.13094 8.78792 4.00226 9.33094 3.98772 9.88295C3.97317 10.435 4.07309 10.984 4.28116 11.4955C4.48924 12.007 4.80097 12.4699 5.19673 12.855L5.20304 12.8612L5.20301 12.8612L11.9993 19.5922L18.7956 12.8612C18.8164 12.8407 18.8377 12.8212 18.8597 12.8029C19.2235 12.4298 19.511 11.9891 19.7059 11.5053C19.9116 10.9947 20.0097 10.4471 19.994 9.89683C19.9784 9.34657 19.8493 8.80547 19.6149 8.30738C19.3805 7.80929 19.0459 7.36495 18.6318 7.00216C18.2178 6.63936 17.7334 6.36593 17.2088 6.19898C16.6843 6.03202 16.1309 5.97514 15.5833 6.03188C15.0358 6.08863 14.5058 6.25778 14.0267 6.52875C13.5475 6.79972 13.1294 7.16668 12.7986 7.60667C12.6091 7.85868 12.3118 8.00656 11.9965 8.00568C11.6812 8.00481 11.3848 7.85527 11.1967 7.60221C10.8673 7.15901 10.4497 6.78881 9.97023 6.51493C9.49073 6.24105 8.95971 6.06942 8.41062 6.01085ZM20.134 14.3505L12.703 21.7102C12.3133 22.0962 11.6854 22.0962 11.2956 21.7102L3.79862 14.2851C3.20655 13.7081 2.74012 13.015 2.42858 12.2491C2.11647 11.4819 1.9666 10.6583 1.98841 9.83029C2.01022 9.00227 2.20324 8.18773 2.55531 7.43797C2.90739 6.68822 3.41089 6.01948 4.03411 5.47387C4.65733 4.92826 5.38677 4.5176 6.1765 4.26775C6.96623 4.0179 7.79913 3.93427 8.62277 4.02213C9.4464 4.10999 10.2429 4.36744 10.9622 4.77826C11.3362 4.9919 11.6852 5.24462 12.0034 5.5315C12.3214 5.2481 12.6695 4.99861 13.0422 4.78784C13.7609 4.38138 14.5559 4.12765 15.3772 4.04254C16.1985 3.95742 17.0286 4.04275 17.8154 4.29318C18.6022 4.54361 19.3289 4.95376 19.9499 5.49795C20.571 6.04214 21.073 6.70865 21.4246 7.45578C21.7762 8.20291 21.9697 9.01457 21.9932 9.83996C22.0167 10.6653 21.8696 11.4867 21.561 12.2526C21.2525 13.0185 20.7891 13.7125 20.2001 14.2911C20.1787 14.3121 20.1567 14.3319 20.134 14.3505Z" fill="white"/>
</g>
</svg>
