<svg width="24" height="24" viewBox="0 0 24 24" fill="none" xmlns="http://www.w3.org/2000/svg">
<g id="help_center">
<path id="Icon" d="M12 18C12.35 18 12.6458 17.8792 12.8875 17.6375C13.1292 17.3958 13.25 17.1 13.25 16.75C13.25 16.4 13.1292 16.1042 12.8875 15.8625C12.6458 15.6208 12.35 15.5 12 15.5C11.65 15.5 11.3542 15.6208 11.1125 15.8625C10.8708 16.1042 10.75 16.4 10.75 16.75C10.75 17.1 10.8708 17.3958 11.1125 17.6375C11.3542 17.8792 11.65 18 12 18ZM15.6 8.95C15.6 8.05 15.2958 7.33333 14.6875 6.8C14.0792 6.26667 13.275 6 12.275 6C11.525 6 10.8625 6.15417 10.2875 6.4625C9.7125 6.77083 9.25833 7.21667 8.925 7.8C8.80833 7.98333 8.80417 8.18333 8.9125 8.4C9.02083 8.61667 9.19167 8.775 9.425 8.875C9.625 8.95833 9.83333 8.9625 10.05 8.8875C10.2667 8.8125 10.45 8.675 10.6 8.475C10.7833 8.225 11.0125 8.03333 11.2875 7.9C11.5625 7.76667 11.8583 7.7 12.175 7.7C12.6417 7.7 13.0208 7.825 13.3125 8.075C13.6042 8.325 13.75 8.64167 13.75 9.025C13.75 9.325 13.65 9.64167 13.45 9.975C13.25 10.3083 12.95 10.6417 12.55 10.975C12.1167 11.3583 11.7917 11.7167 11.575 12.05C11.3583 12.3833 11.2167 12.775 11.15 13.225C11.1167 13.4583 11.1875 13.6708 11.3625 13.8625C11.5375 14.0542 11.7583 14.15 12.025 14.15C12.2583 14.15 12.4708 14.0708 12.6625 13.9125C12.8542 13.7542 12.975 13.5417 13.025 13.275C13.075 13.0083 13.1667 12.7708 13.3 12.5625C13.4333 12.3542 13.6667 12.0833 14 11.75C14.6333 11.1167 15.0583 10.6083 15.275 10.225C15.4917 9.84167 15.6 9.41667 15.6 8.95ZM5 21C4.45 21 3.97917 20.8042 3.5875 20.4125C3.19583 20.0208 3 19.55 3 19V5C3 4.45 3.19583 3.97917 3.5875 3.5875C3.97917 3.19583 4.45 3 5 3H19C19.55 3 20.0208 3.19583 20.4125 3.5875C20.8042 3.97917 21 4.45 21 5V19C21 19.55 20.8042 20.0208 20.4125 20.4125C20.0208 20.8042 19.55 21 19 21H5ZM5 19H19V5H5V19Z" fill="white"/>
</g>
</svg>
