<svg width="39" height="39" viewBox="0 0 39 39" fill="none" xmlns="http://www.w3.org/2000/svg">
<path fill-rule="evenodd" clip-rule="evenodd" d="M4.6757 19.5412C4.6757 27.7512 11.3312 34.4067 19.5412 34.4067C27.7512 34.4067 34.4067 27.7512 34.4067 19.5412C34.4067 11.3312 27.7512 4.6757 19.5412 4.6757C11.3312 4.6757 4.6757 11.3312 4.6757 19.5412ZM19.5412 4C10.958 4 4 10.958 4 19.5412C4 28.1244 10.958 35.0824 19.5412 35.0824C28.1244 35.0824 35.0824 28.1244 35.0824 19.5412C35.0824 10.958 28.1244 4 19.5412 4Z" fill="white"/>
<g filter="url(#filter0_f_2915_40969)">
<path fill-rule="evenodd" clip-rule="evenodd" d="M4.6757 19.5412C4.6757 27.7512 11.3312 34.4067 19.5412 34.4067C27.7512 34.4067 34.4067 27.7512 34.4067 19.5412C34.4067 11.3312 27.7512 4.6757 19.5412 4.6757C11.3312 4.6757 4.6757 11.3312 4.6757 19.5412ZM19.5412 4C10.958 4 4 10.958 4 19.5412C4 28.1244 10.958 35.0824 19.5412 35.0824C28.1244 35.0824 35.0824 28.1244 35.0824 19.5412C35.0824 10.958 28.1244 4 19.5412 4Z" fill="white"/>
</g>
<g clip-path="url(#clip0_2915_40969)">
<path d="M20 13.4406C22.1375 13.4406 22.3906 13.45 23.2313 13.4875C24.0125 13.5219 24.4344 13.6531 24.7156 13.7625C25.0875 13.9063 25.3563 14.0813 25.6344 14.3594C25.9156 14.6406 26.0875 14.9063 26.2313 15.2781C26.3406 15.5594 26.4719 15.9844 26.5063 16.7625C26.5438 17.6062 26.5531 17.8594 26.5531 19.9938C26.5531 22.1313 26.5438 22.3844 26.5063 23.225C26.4719 24.0063 26.3406 24.4281 26.2313 24.7094C26.0875 25.0813 25.9125 25.35 25.6344 25.6281C25.3531 25.9094 25.0875 26.0813 24.7156 26.225C24.4344 26.3344 24.0094 26.4656 23.2313 26.5C22.3875 26.5375 22.1344 26.5469 20 26.5469C17.8625 26.5469 17.6094 26.5375 16.7688 26.5C15.9875 26.4656 15.5656 26.3344 15.2844 26.225C14.9125 26.0813 14.6438 25.9063 14.3656 25.6281C14.0844 25.3469 13.9125 25.0813 13.7688 24.7094C13.6594 24.4281 13.5281 24.0031 13.4938 23.225C13.4563 22.3813 13.4469 22.1281 13.4469 19.9938C13.4469 17.8563 13.4563 17.6031 13.4938 16.7625C13.5281 15.9812 13.6594 15.5594 13.7688 15.2781C13.9125 14.9063 14.0875 14.6375 14.3656 14.3594C14.6469 14.0781 14.9125 13.9063 15.2844 13.7625C15.5656 13.6531 15.9906 13.5219 16.7688 13.4875C17.6094 13.45 17.8625 13.4406 20 13.4406ZM20 12C17.8281 12 17.5563 12.0094 16.7031 12.0469C15.8531 12.0844 15.2688 12.2219 14.7625 12.4187C14.2344 12.625 13.7875 12.8969 13.3438 13.3438C12.8969 13.7875 12.625 14.2344 12.4188 14.7594C12.2219 15.2688 12.0844 15.85 12.0469 16.7C12.0094 17.5563 12 17.8281 12 20C12 22.1719 12.0094 22.4438 12.0469 23.2969C12.0844 24.1469 12.2219 24.7313 12.4188 25.2375C12.625 25.7656 12.8969 26.2125 13.3438 26.6562C13.7875 27.1 14.2344 27.375 14.7594 27.5781C15.2688 27.775 15.85 27.9125 16.7 27.95C17.5531 27.9875 17.825 27.9969 19.9969 27.9969C22.1688 27.9969 22.4406 27.9875 23.2938 27.95C24.1438 27.9125 24.7281 27.775 25.2344 27.5781C25.7594 27.375 26.2063 27.1 26.65 26.6562C27.0938 26.2125 27.3688 25.7656 27.5719 25.2406C27.7688 24.7313 27.9063 24.15 27.9438 23.3C27.9813 22.4469 27.9906 22.175 27.9906 20.0031C27.9906 17.8313 27.9813 17.5594 27.9438 16.7063C27.9063 15.8563 27.7688 15.2719 27.5719 14.7656C27.375 14.2344 27.1031 13.7875 26.6563 13.3438C26.2125 12.9 25.7656 12.625 25.2406 12.4219C24.7313 12.225 24.15 12.0875 23.3 12.05C22.4438 12.0094 22.1719 12 20 12Z" fill="white"/>
<path d="M20 15.8906C17.7313 15.8906 15.8906 17.7313 15.8906 20C15.8906 22.2688 17.7313 24.1094 20 24.1094C22.2688 24.1094 24.1094 22.2688 24.1094 20C24.1094 17.7313 22.2688 15.8906 20 15.8906ZM20 22.6656C18.5281 22.6656 17.3344 21.4719 17.3344 20C17.3344 18.5281 18.5281 17.3344 20 17.3344C21.4719 17.3344 22.6656 18.5281 22.6656 20C22.6656 21.4719 21.4719 22.6656 20 22.6656Z" fill="white"/>
<path d="M25.2312 15.7289C25.2312 16.2602 24.8 16.6883 24.2719 16.6883C23.7406 16.6883 23.3125 16.257 23.3125 15.7289C23.3125 15.1977 23.7438 14.7695 24.2719 14.7695C24.8 14.7695 25.2312 15.2008 25.2312 15.7289Z" fill="white"/>
</g>
<defs>
<filter id="filter0_f_2915_40969" x="0.375998" y="0.375998" width="38.33" height="38.33" filterUnits="userSpaceOnUse" color-interpolation-filters="sRGB">
<feFlood flood-opacity="0" result="BackgroundImageFix"/>
<feBlend mode="normal" in="SourceGraphic" in2="BackgroundImageFix" result="shape"/>
<feGaussianBlur stdDeviation="1.812" result="effect1_foregroundBlur_2915_40969"/>
</filter>
<clipPath id="clip0_2915_40969">
<rect width="16" height="16" fill="white" transform="translate(12 12)"/>
</clipPath>
</defs>
</svg>
