<?xml version="1.0" encoding="UTF-8"?>
<svg version="1.1" xmlns="http://www.w3.org/2000/svg" width="32" height="31">
<path d="M0 0 C4.48707987 2.58774292 7.19932326 4.99595165 8.73828125 10.09375 C9.63661572 16.96202872 8.8442555 21.50506283 4.73828125 27.09375 C0.72929798 31.09325577 -3.94019439 30.75974303 -9.24438477 30.79614258 C-12.67685337 30.67168958 -14.9426692 30.30321718 -17.83203125 28.40625 C-22.0105078 23.65082899 -23.59017736 19.56508986 -23.47265625 13.1484375 C-22.98679933 8.41583116 -20.74429289 5.31334191 -17.26171875 2.28125 C-12.07836203 -1.49828094 -6.04039338 -2.42033034 0 0 Z M-19.26171875 8.09375 C-21.10267823 11.77566895 -20.62845527 16.06597135 -20.26171875 20.09375 C-19.09284344 23.16725726 -19.09284344 23.16725726 -17.26171875 25.09375 C-16.60171875 25.09375 -15.94171875 25.09375 -15.26171875 25.09375 C-15.20113281 24.20171875 -15.14054688 23.3096875 -15.078125 22.390625 C-14.99433594 21.22015625 -14.91054687 20.0496875 -14.82421875 18.84375 C-14.74300781 17.68359375 -14.66179688 16.5234375 -14.578125 15.328125 C-14.32924088 12.78397624 -13.98056933 10.53421752 -13.26171875 8.09375 C-5.92838542 6.87152778 -5.92838542 6.87152778 -2.82421875 7.90625 C-1.26171875 9.09375 -1.26171875 9.09375 -0.26171875 11.09375 C-0.02999048 13.63990009 0.15722654 16.16771225 0.30078125 18.71875 C0.34396484 19.42515625 0.38714844 20.1315625 0.43164062 20.859375 C0.53772876 22.60393537 0.63851014 24.34881697 0.73828125 26.09375 C4.45874391 22.63604875 6.58742848 20.49982888 6.9375 15.21875 C6.47396628 10.27439032 4.17911988 6.44983341 0.61328125 3.09375 C-7.56750996 0.24825741 -13.63398223 1.45061148 -19.26171875 8.09375 Z M-10.26171875 9.09375 C-10.59171875 9.75375 -10.92171875 10.41375 -11.26171875 11.09375 C-10.27171875 11.09375 -9.28171875 11.09375 -8.26171875 11.09375 C-8.26171875 10.43375 -8.26171875 9.77375 -8.26171875 9.09375 C-8.92171875 9.09375 -9.58171875 9.09375 -10.26171875 9.09375 Z M-6.26171875 9.09375 C-5.93171875 9.75375 -5.60171875 10.41375 -5.26171875 11.09375 C-4.27171875 10.76375 -3.28171875 10.43375 -2.26171875 10.09375 C-3.58171875 9.76375 -4.90171875 9.43375 -6.26171875 9.09375 Z M-12.26171875 14.09375 C-12.26171875 15.74375 -12.26171875 17.39375 -12.26171875 19.09375 C-8.56753674 20.325144 -6.05609265 19.73807764 -2.26171875 19.09375 C-2.26171875 17.44375 -2.26171875 15.79375 -2.26171875 14.09375 C-5.56171875 14.09375 -8.86171875 14.09375 -12.26171875 14.09375 Z M-12.26171875 23.09375 C-12.26171875 24.41375 -12.26171875 25.73375 -12.26171875 27.09375 C-8.96171875 27.09375 -5.66171875 27.09375 -2.26171875 27.09375 C-2.26171875 25.77375 -2.26171875 24.45375 -2.26171875 23.09375 C-5.95713461 22.14350021 -8.56630289 22.14350021 -12.26171875 23.09375 Z " fill="#000000" transform="translate(23.26171875,0.90625)"/>
<path d="M0 0 C3.06712284 2.45369827 5.02487793 4.31892576 5.48046875 8.328125 C5.44566406 9.20984375 5.41085938 10.0915625 5.375 11 C5.34792969 11.89203125 5.32085938 12.7840625 5.29296875 13.703125 C5.25816406 14.37859375 5.22335938 15.0540625 5.1875 15.75 C4.1975 15.75 3.2075 15.75 2.1875 15.75 C2.27 14.533125 2.3525 13.31625 2.4375 12.0625 C2.42062317 8.88965609 2.17177652 7.72043985 0.625 4.8125 C-2.58494958 2.09638882 -4.63294153 1.75 -8.8125 1.75 C-11.68802999 2.96411266 -13.2583311 4.01110814 -15.125 6.5 C-16.07789512 9.61856585 -15.93702507 12.51234825 -15.8125 15.75 C-16.4725 16.08 -17.1325 16.41 -17.8125 16.75 C-19.4199907 13.53501861 -19.28564549 10.23701742 -18.8125 6.75 C-17.20326503 3.64647542 -15.80902733 1.53298576 -13.0625 -0.625 C-8.39863264 -1.92051871 -4.37274106 -1.94344047 0 0 Z " fill="#000000" transform="translate(22.8125,5.25)"/>
</svg>
