<svg width="39" height="39" viewBox="0 0 39 39" fill="none" xmlns="http://www.w3.org/2000/svg">
<path fill-rule="evenodd" clip-rule="evenodd" d="M4.6757 19.5412C4.6757 27.7512 11.3312 34.4067 19.5412 34.4067C27.7512 34.4067 34.4067 27.7512 34.4067 19.5412C34.4067 11.3312 27.7512 4.6757 19.5412 4.6757C11.3312 4.6757 4.6757 11.3312 4.6757 19.5412ZM19.5412 4C10.958 4 4 10.958 4 19.5412C4 28.1244 10.958 35.0824 19.5412 35.0824C28.1244 35.0824 35.0824 28.1244 35.0824 19.5412C35.0824 10.958 28.1244 4 19.5412 4Z" fill="white"/>
<g filter="url(#filter0_f_2915_40974)">
<path fill-rule="evenodd" clip-rule="evenodd" d="M4.6757 19.5412C4.6757 27.7512 11.3312 34.4067 19.5412 34.4067C27.7512 34.4067 34.4067 27.7512 34.4067 19.5412C34.4067 11.3312 27.7512 4.6757 19.5412 4.6757C11.3312 4.6757 4.6757 11.3312 4.6757 19.5412ZM19.5412 4C10.958 4 4 10.958 4 19.5412C4 28.1244 10.958 35.0824 19.5412 35.0824C28.1244 35.0824 35.0824 28.1244 35.0824 19.5412C35.0824 10.958 28.1244 4 19.5412 4Z" fill="white"/>
</g>
<path d="M9.75 15.5625C9.75 14.2795 10.7631 13.25 12 13.25C13.2369 13.25 14.25 14.2795 14.25 15.5625V23.4375C14.25 24.7205 13.2369 25.75 12 25.75C10.7631 25.75 9.75 24.7205 9.75 23.4375V15.5625Z" fill="white" stroke="white" stroke-width="0.5"/>
<path d="M24.75 15.5625C24.75 14.2795 25.7631 13.25 27 13.25C28.2369 13.25 29.25 14.2795 29.25 15.5625V23.4375C29.25 24.7205 28.2369 25.75 27 25.75C25.7631 25.75 24.75 24.7205 24.75 23.4375V15.5625Z" fill="white" stroke="white" stroke-width="0.5"/>
<path d="M21.75 18.5C21.75 19.7426 20.7426 20.75 19.5 20.75C18.2574 20.75 17.25 19.7426 17.25 18.5C17.25 17.2574 18.2574 16.25 19.5 16.25C20.7426 16.25 21.75 17.2574 21.75 18.5Z" fill="white" stroke="white" stroke-width="0.5"/>
<defs>
<filter id="filter0_f_2915_40974" x="0.375998" y="0.375998" width="38.33" height="38.33" filterUnits="userSpaceOnUse" color-interpolation-filters="sRGB">
<feFlood flood-opacity="0" result="BackgroundImageFix"/>
<feBlend mode="normal" in="SourceGraphic" in2="BackgroundImageFix" result="shape"/>
<feGaussianBlur stdDeviation="1.812" result="effect1_foregroundBlur_2915_40974"/>
</filter>
</defs>
</svg>
