<svg width="40" height="44" viewBox="0 0 40 44" fill="none" xmlns="http://www.w3.org/2000/svg">
<g filter="url(#filter0_d_2915_40995)">
<path d="M35.8 19.9C35.8 28.6813 28.6813 35.8 19.9 35.8C11.1187 35.8 4 28.6813 4 19.9C4 11.1187 11.1187 4 19.9 4C28.6813 4 35.8 11.1187 35.8 19.9Z" fill="#DDF247"/>
<path d="M35.55 19.9C35.55 28.5433 28.5433 35.55 19.9 35.55C11.2567 35.55 4.25 28.5433 4.25 19.9C4.25 11.2567 11.2567 4.25 19.9 4.25C28.5433 4.25 35.55 11.2567 35.55 19.9Z" stroke="white" stroke-width="0.5"/>
</g>
<g filter="url(#filter1_f_2915_40995)">
<path d="M35.55 19.9C35.55 28.5433 28.5433 35.55 19.9 35.55C11.2567 35.55 4.25 28.5433 4.25 19.9C4.25 11.2567 11.2567 4.25 19.9 4.25C28.5433 4.25 35.55 11.2567 35.55 19.9Z" stroke="white" stroke-width="0.5"/>
</g>
<path d="M10.25 16.5625C10.25 15.2795 11.2631 14.25 12.5 14.25C13.7369 14.25 14.75 15.2795 14.75 16.5625V24.4375C14.75 25.7205 13.7369 26.75 12.5 26.75C11.2631 26.75 10.25 25.7205 10.25 24.4375V16.5625Z" fill="black" stroke="black" stroke-width="0.5"/>
<path d="M25.25 16.5625C25.25 15.2795 26.2631 14.25 27.5 14.25C28.7369 14.25 29.75 15.2795 29.75 16.5625V24.4375C29.75 25.7205 28.7369 26.75 27.5 26.75C26.2631 26.75 25.25 25.7205 25.25 24.4375V16.5625Z" fill="black" stroke="black" stroke-width="0.5"/>
<path d="M22.25 19.5C22.25 20.7426 21.2426 21.75 20 21.75C18.7574 21.75 17.75 20.7426 17.75 19.5C17.75 18.2574 18.7574 17.25 20 17.25C21.2426 17.25 22.25 18.2574 22.25 19.5Z" fill="black" stroke="black" stroke-width="0.5"/>
<defs>
<filter id="filter0_d_2915_40995" x="0" y="4" width="39.8008" height="39.8008" filterUnits="userSpaceOnUse" color-interpolation-filters="sRGB">
<feFlood flood-opacity="0" result="BackgroundImageFix"/>
<feColorMatrix in="SourceAlpha" type="matrix" values="0 0 0 0 0 0 0 0 0 0 0 0 0 0 0 0 0 0 127 0" result="hardAlpha"/>
<feOffset dy="4"/>
<feGaussianBlur stdDeviation="2"/>
<feComposite in2="hardAlpha" operator="out"/>
<feColorMatrix type="matrix" values="0 0 0 0 0 0 0 0 0 0 0 0 0 0 0 0 0 0 0.25 0"/>
<feBlend mode="normal" in2="BackgroundImageFix" result="effect1_dropShadow_2915_40995"/>
<feBlend mode="normal" in="SourceGraphic" in2="effect1_dropShadow_2915_40995" result="shape"/>
</filter>
<filter id="filter1_f_2915_40995" x="0" y="0" width="39.8008" height="39.8008" filterUnits="userSpaceOnUse" color-interpolation-filters="sRGB">
<feFlood flood-opacity="0" result="BackgroundImageFix"/>
<feBlend mode="normal" in="SourceGraphic" in2="BackgroundImageFix" result="shape"/>
<feGaussianBlur stdDeviation="2" result="effect1_foregroundBlur_2915_40995"/>
</filter>
</defs>
</svg>
