<svg width="20" height="20" viewBox="0 0 20 20" fill="none" xmlns="http://www.w3.org/2000/svg">
<path d="M12.6756 8.69314C12.4726 8.57932 12.2092 8.57932 11.9859 8.69314L10.4024 9.56879L9.3272 10.1395L7.74376 11.0146C7.54081 11.129 7.27737 11.129 7.05407 11.0146L5.79567 10.3296C5.59273 10.2157 5.45083 10.0066 5.45083 9.77791V8.42685C5.45083 8.19867 5.57238 7.98956 5.79567 7.8752L7.03317 7.2092C7.23667 7.09485 7.50066 7.09485 7.72396 7.2092L8.96146 7.8752C9.16495 7.98956 9.30685 8.19867 9.30685 8.42685V9.3025L10.3821 8.7122V7.83709C10.3833 7.72342 10.3517 7.61167 10.2908 7.51428C10.2299 7.41688 10.1421 7.33766 10.0372 7.28544L7.74376 6.02967C7.54081 5.91532 7.27737 5.91532 7.05407 6.02967L4.71988 7.28544C4.61499 7.33766 4.52722 7.41688 4.46634 7.51428C4.40545 7.61167 4.37384 7.72342 4.37503 7.83709V10.3677C4.37503 10.5964 4.49658 10.8055 4.71988 10.9199L7.05407 12.1756C7.25702 12.2894 7.52101 12.2894 7.74376 12.1756L9.3272 11.319L10.4024 10.7293L11.9859 9.8732C12.1888 9.75885 12.4523 9.75885 12.6756 9.8732L13.9136 10.5392C14.1171 10.653 14.2585 10.8621 14.2585 11.0909V12.4419C14.2585 12.6701 14.1375 12.8792 13.9136 12.9936L12.6761 13.6786C12.4726 13.793 12.2086 13.793 11.9859 13.6786L10.7478 13.0126C10.5443 12.8983 10.4024 12.6891 10.4024 12.461V11.5853L9.3272 12.1756V13.0507C9.3272 13.2789 9.44875 13.4886 9.67205 13.6024L12.0062 14.8581C12.2092 14.9725 12.4726 14.9725 12.6959 14.8581L15.0301 13.6024C15.2331 13.4886 15.375 13.2794 15.375 13.0507V10.5201C15.3762 10.4065 15.3445 10.2947 15.2837 10.1973C15.2228 10.0999 15.135 10.0207 15.0301 9.9685L12.6756 8.69314Z" fill="white"/>
<path fill-rule="evenodd" clip-rule="evenodd" d="M9.875 18.9439C14.5694 18.9439 18.375 15.1383 18.375 10.4439C18.375 5.74949 14.5694 1.94391 9.875 1.94391C5.18058 1.94391 1.375 5.74949 1.375 10.4439C1.375 15.1383 5.18058 18.9439 9.875 18.9439ZM9.875 19.9439C15.1217 19.9439 19.375 15.6906 19.375 10.4439C19.375 5.1972 15.1217 0.943909 9.875 0.943909C4.62829 0.943909 0.375 5.1972 0.375 10.4439C0.375 15.6906 4.62829 19.9439 9.875 19.9439Z" fill="white"/>
</svg>
