<svg width="46" height="44" viewBox="0 0 46 44" fill="none" xmlns="http://www.w3.org/2000/svg">
<path d="M18.8711 30.2646V26.9142H19.5133L20.9698 29.1478V26.9142H21.612V30.2646H20.9698L19.5133 28.031V30.2646H18.8711ZM22.2612 30.2646V26.9142H24.3087V27.5471H22.8941V28.273H24.0295V28.9059H22.8941V30.2646H22.2612ZM26.1667 30.3344C25.8316 30.3344 25.5423 30.2615 25.2988 30.1157C25.0568 29.9699 24.8699 29.766 24.7381 29.5038C24.6078 29.2417 24.5426 28.9369 24.5426 28.5894C24.5426 28.242 24.6078 27.9372 24.7381 27.675C24.8699 27.4129 25.0568 27.2089 25.2988 27.0631C25.5423 26.9173 25.8316 26.8444 26.1667 26.8444C26.5513 26.8444 26.874 26.9398 27.1346 27.1306C27.3967 27.3214 27.5813 27.5797 27.6883 27.9054L27.0508 28.0822C26.9888 27.879 26.8841 27.7216 26.7367 27.6099C26.5893 27.4967 26.3993 27.44 26.1667 27.44C25.9542 27.44 25.7765 27.4874 25.6338 27.582C25.4927 27.6766 25.3864 27.81 25.3151 27.9822C25.2437 28.1543 25.2081 28.3568 25.2081 28.5894C25.2081 28.8221 25.2437 29.0245 25.3151 29.1967C25.3864 29.3689 25.4927 29.5023 25.6338 29.5969C25.7765 29.6915 25.9542 29.7388 26.1667 29.7388C26.3993 29.7388 26.5893 29.6822 26.7367 29.569C26.8841 29.4557 26.9888 29.2983 27.0508 29.0967L27.6883 29.2735C27.5813 29.5992 27.3967 29.8575 27.1346 30.0483C26.874 30.2391 26.5513 30.3344 26.1667 30.3344Z" fill="black"/>
<rect x="16.1862" y="19.8673" width="13.9716" height="17.162" stroke="black" stroke-width="0.550064"/>
<rect x="17.5151" y="21.1748" width="11.3141" height="14.5576" stroke="black" stroke-width="0.495058"/>
<rect x="30.022" y="19.7852" width="0.440238" height="1.78358" transform="rotate(48.1603 30.022 19.7852)" fill="black"/>
<rect width="0.440238" height="1.78358" transform="matrix(-0.688457 0.725278 0.725278 0.688457 16.2988 19.7466)" fill="black"/>
<rect width="0.440238" height="1.78358" transform="matrix(-0.710446 0.703752 0.703752 0.710446 29.0054 35.5718)" fill="black"/>
<rect x="17.3325" y="35.5718" width="0.440238" height="1.78358" transform="rotate(44.7288 17.3325 35.5718)" fill="black"/>
<path fill-rule="evenodd" clip-rule="evenodd" d="M23.855 17.9708C23.7846 18.1279 23.6615 18.2564 23.5082 18.3336L24.471 19.6183H21.8734L22.8362 18.3335C22.683 18.2563 22.5599 18.1279 22.4895 17.9707L21.2548 19.6183L20.8838 20.1134H21.5024H24.842H25.4607L25.0897 19.6183L23.855 17.9708Z" fill="black"/>
<circle cx="23.1716" cy="17.6667" r="0.555221" stroke="black" stroke-width="0.385045"/>
<path d="M33.1485 27.7287C33.5303 27.9163 33.9944 27.7598 34.157 27.3666C34.828 25.7438 35.1324 23.9892 35.0442 22.229C34.9431 20.2117 34.3298 18.2535 33.2621 16.5391C32.1944 14.8246 30.7075 13.4105 28.9417 12.43C27.1759 11.4495 25.1895 10.935 23.1697 10.9351C21.15 10.9351 19.1636 11.4498 17.3979 12.4304C15.6322 13.411 14.1454 14.8253 13.0778 16.5398C12.0102 18.2544 11.397 20.2126 11.2961 22.2298C11.208 23.9901 11.5125 25.7446 12.1837 27.3674C12.3462 27.7606 12.8104 27.9171 13.1922 27.7294C13.574 27.5417 13.7284 27.0809 13.5696 26.6862C13.0118 25.2996 12.7598 23.8056 12.8348 22.3068C12.9227 20.551 13.4564 18.8465 14.3856 17.3542C15.3148 15.8618 16.609 14.6308 18.1459 13.7772C19.6828 12.9237 21.4118 12.4757 23.1698 12.4757C24.9278 12.4756 26.6568 12.9234 28.1938 13.7769C29.7308 14.6303 31.025 15.8612 31.9543 17.3535C32.8837 18.8458 33.4175 20.5502 33.5055 22.3061C33.5806 23.8049 33.3287 25.2989 32.771 26.6855C32.6122 27.0802 32.7667 27.541 33.1485 27.7287Z" fill="black"/>
<path d="M29.0921 18.2069C29.3635 18.0178 29.4319 17.6429 29.2228 17.3866C28.5513 16.5639 27.7194 15.8834 26.7755 15.388C25.6544 14.7996 24.4083 14.4896 23.1422 14.484C21.8762 14.4784 20.6273 14.7774 19.5011 15.3558C18.5528 15.8428 17.7149 16.5159 17.0362 17.3327C16.8249 17.5871 16.8899 17.9626 17.1596 18.1541C17.4293 18.3456 17.8012 18.2802 18.0161 18.0287C18.5811 17.3671 19.271 16.8205 20.0483 16.4213C21.0037 15.9307 22.063 15.677 23.1369 15.6818C24.2109 15.6865 25.2679 15.9495 26.2188 16.4486C26.9926 16.8547 27.6776 17.4074 28.2368 18.0739C28.4494 18.3273 28.8207 18.396 29.0921 18.2069Z" fill="black"/>
<path fill-rule="evenodd" clip-rule="evenodd" d="M37.9642 28.2778C36.7961 31.4463 34.6415 34.1559 31.8177 36.0079V33.8755C33.8644 32.2742 35.4327 30.1305 36.337 27.6779C37.3767 24.8578 37.4834 21.7785 36.6415 18.8932C35.7996 16.0079 34.0535 13.4691 31.6604 11.6508C29.2672 9.83241 26.3534 8.83051 23.348 8.79258C20.3426 8.75465 17.4045 9.68271 14.9662 11.4401C12.5279 13.1975 10.7183 15.6914 9.80386 18.5545C8.88941 21.4176 8.91843 24.4987 9.88665 27.3441C10.7208 29.7954 12.2139 31.9601 14.1914 33.6068V35.7835C11.4167 33.861 9.33222 31.0986 8.24477 27.9028C7.15688 24.7057 7.12427 21.2438 8.15174 18.0268C9.17922 14.8098 11.2125 12.0077 13.9521 10.0331C16.6918 8.05853 19.9931 7.01577 23.3699 7.05838C26.7467 7.101 30.0207 8.22674 32.7096 10.2698C35.3986 12.313 37.3605 15.1655 38.3064 18.4074C39.2524 21.6493 39.1324 25.1092 37.9642 28.2778Z" fill="black"/>
</svg>
