<svg width="46" height="44" viewBox="0 0 46 44" fill="none" xmlns="http://www.w3.org/2000/svg">
<g id="Frame 1000003451">
<g id="Group 1000003109">
<g id="Group 1000003107">
<g id="NFC">
<path id="Vector" d="M26.167 30.1668C25.832 30.1668 25.5427 30.0939 25.2991 29.9481C25.0572 29.8023 24.8703 29.5983 24.7384 29.3362C24.6081 29.074 24.543 28.7692 24.543 28.4218C24.543 28.0743 24.6081 27.7695 24.7384 27.5074C24.8703 27.2452 25.0572 27.0413 25.2991 26.8955C25.5427 26.7497 25.832 26.6768 26.167 26.6768C26.5517 26.6768 26.8743 26.7722 27.1349 26.9629C27.397 27.1537 27.5816 27.412 27.6887 27.7377L27.0511 27.9146C26.9891 27.7114 26.8844 27.5539 26.737 27.4422C26.5897 27.329 26.3997 27.2724 26.167 27.2724C25.9545 27.2724 25.7769 27.3197 25.6342 27.4143C25.493 27.5089 25.3868 27.6423 25.3154 27.8145C25.2441 27.9867 25.2084 28.1891 25.2084 28.4218C25.2084 28.6544 25.2441 28.8569 25.3154 29.029C25.3868 29.2012 25.493 29.3346 25.6342 29.4292C25.7769 29.5238 25.9545 29.5712 26.167 29.5712C26.3997 29.5712 26.5897 29.5145 26.737 29.4013C26.8844 29.2881 26.9891 29.1306 27.0511 28.929L27.6887 29.1058C27.5816 29.4316 27.397 29.6898 27.1349 29.8806C26.8743 30.0714 26.5517 30.1668 26.167 30.1668Z" fill="#DDF247"/>
<path id="Vector_2" d="M22.2617 30.0975V26.7471H24.3092V27.3799H22.8946V28.1059H24.03V28.7387H22.8946V30.0975H22.2617Z" fill="#DDF247"/>
<path id="Vector_3" d="M18.8711 30.0975V26.7471H19.5133L20.9698 28.9807V26.7471H21.6119V30.0975H20.9698L19.5133 27.8639V30.0975H18.8711Z" fill="#DDF247"/>
</g>
<g id="Group 1000003105">
<path id="Rectangle 3363 (Stroke)" fill-rule="evenodd" clip-rule="evenodd" d="M29.8828 19.9749H16.4612V36.5868H29.8828V19.9749ZM15.9111 19.4248V37.1369H30.4328V19.4248H15.9111Z" fill="#DDF247"/>
<path id="Rectangle 3364 (Stroke)" fill-rule="evenodd" clip-rule="evenodd" d="M28.5817 21.2538H17.7626V35.3164H28.5817V21.2538ZM17.2676 20.7588V35.8114H29.0768V20.7588H17.2676Z" fill="#DDF247"/>
<path id="Rectangle 3365" d="M30.0215 19.6162L30.3151 19.9442L28.9864 21.1339L28.6927 20.8059L30.0215 19.6162Z" fill="#DDF247"/>
<path id="Rectangle 3368" d="M16.2988 19.5791L15.9957 19.8984L17.2893 21.1263L17.5924 20.807L16.2988 19.5791Z" fill="#DDF247"/>
<path id="Rectangle 3366" d="M29.0059 35.4033L28.6931 35.7131L29.9483 36.9803L30.2611 36.6705L29.0059 35.4033Z" fill="#DDF247"/>
<path id="Rectangle 3367" d="M17.332 35.4033L17.6448 35.7131L16.3896 36.9803L16.0768 36.6705L17.332 35.4033Z" fill="#DDF247"/>
<path id="Subtract" fill-rule="evenodd" clip-rule="evenodd" d="M23.855 17.8038C23.7846 17.961 23.6615 18.0894 23.5082 18.1666L24.471 19.4515H21.8734L22.8362 18.1666C22.683 18.0893 22.5599 17.9609 22.4895 17.8037L21.2548 19.4515L20.8838 19.9466H21.5024H24.842H25.4607L25.0897 19.4515L23.855 17.8038Z" fill="#DDF247"/>
<path id="Ellipse 542 (Stroke)" fill-rule="evenodd" clip-rule="evenodd" d="M23.1716 17.8614C23.3719 17.8614 23.5343 17.699 23.5343 17.4987C23.5343 17.2984 23.3719 17.136 23.1716 17.136C22.9713 17.136 22.8089 17.2984 22.8089 17.4987C22.8089 17.699 22.9713 17.8614 23.1716 17.8614ZM23.1716 18.2465C23.5845 18.2465 23.9193 17.9117 23.9193 17.4987C23.9193 17.0858 23.5845 16.751 23.1716 16.751C22.7586 16.751 22.4238 17.0858 22.4238 17.4987C22.4238 17.9117 22.7586 18.2465 23.1716 18.2465Z" fill="#DDF247"/>
</g>
</g>
<g id="Group 1000003100">
<g id="Group 1000003099">
<path id="Ellipse 539" d="M33.1485 27.5622C33.5303 27.7498 33.9944 27.5933 34.157 27.2001C34.828 25.5773 35.1324 23.8227 35.0442 22.0624C34.9431 20.0452 34.3298 18.087 33.2621 16.3726C32.1944 14.6581 30.7075 13.2439 28.9417 12.2635C27.1759 11.283 25.1895 10.7685 23.1697 10.7686C21.15 10.7686 19.1636 11.2833 17.3979 12.2639C15.6322 13.2445 14.1454 14.6588 13.0778 16.3733C12.0102 18.0879 11.397 20.0461 11.2961 22.0633C11.208 23.8236 11.5125 25.5781 12.1837 27.2009C12.3462 27.5941 12.8104 27.7506 13.1922 27.5629C13.574 27.3752 13.7284 26.9144 13.5696 26.5197C13.0118 25.1331 12.7598 23.6391 12.8348 22.1403C12.9227 20.3845 13.4564 18.68 14.3856 17.1876C15.3148 15.6953 16.609 14.4643 18.1459 13.6107C19.6828 12.7572 21.4118 12.3092 23.1698 12.3092C24.9278 12.3091 26.6568 12.7569 28.1938 13.6104C29.7308 14.4638 31.025 15.6947 31.9543 17.187C32.8837 18.6793 33.4175 20.3837 33.5055 22.1396C33.5806 23.6384 33.3287 25.1324 32.771 26.519C32.6122 26.9137 32.7667 27.3745 33.1485 27.5622Z" fill="#DDF247"/>
<path id="Ellipse 540" d="M29.0916 18.0404C29.3629 17.8513 29.4314 17.4763 29.2222 17.2201C28.5508 16.3974 27.7189 15.7169 26.775 15.2215C25.6539 14.6331 24.4078 14.3231 23.1417 14.3175C21.8756 14.3119 20.6268 14.6109 19.5006 15.1893C18.5523 15.6763 17.7144 16.3494 17.0357 17.1661C16.8243 17.4206 16.8894 17.7961 17.1591 17.9876C17.4288 18.1791 17.8007 18.1137 18.0155 17.8622C18.5806 17.2006 19.2705 16.654 20.0478 16.2548C21.0031 15.7642 22.0625 15.5105 23.1364 15.5153C24.2103 15.52 25.2674 15.783 26.2183 16.2821C26.9921 16.6882 27.6771 17.2409 28.2363 17.9074C28.4489 18.1608 28.8202 18.2295 29.0916 18.0404Z" fill="#DDF247"/>
</g>
<path id="Subtract_2" fill-rule="evenodd" clip-rule="evenodd" d="M37.9642 28.1105C36.7961 31.2789 34.6415 33.9886 31.8177 35.8406V33.7081C33.8644 32.1068 35.4327 29.9631 36.337 27.5105C37.3767 24.6905 37.4834 21.6111 36.6415 18.7258C35.7996 15.8404 34.0535 13.3017 31.6604 11.4833C29.2672 9.66495 26.3534 8.66303 23.348 8.62511C20.3426 8.58718 17.4045 9.51524 14.9662 11.2726C12.5279 13.0301 10.7183 15.5239 9.80386 18.3871C8.88941 21.2502 8.91843 24.3313 9.88665 27.1767C10.7208 29.628 12.2139 31.7928 14.1914 33.4395V35.6162C11.4167 33.6936 9.33222 30.9313 8.24477 27.7354C7.15688 24.5383 7.12427 21.0764 8.15174 17.8594C9.17922 14.6424 11.2125 11.8403 13.9521 9.86567C16.6918 7.89106 19.9931 6.84829 23.3699 6.8909C26.7467 6.93352 30.0206 8.05926 32.7096 10.1024C35.3986 12.1455 37.3605 14.998 38.3064 18.2399C39.2524 21.4819 39.1324 24.9419 37.9642 28.1105Z" fill="#DDF247"/>
</g>
</g>
</g>
</svg>
