<svg width="50" height="50" viewBox="0 0 50 50" fill="none" xmlns="http://www.w3.org/2000/svg">
<path d="M19.1247 28.7064L31.3747 16.4564M20.1456 17.4772H20.166M30.3539 27.6855H30.3743M39.5413 42.998V10.3314C39.5413 8.07622 37.7132 6.24805 35.458 6.24805H15.0413C12.7862 6.24805 10.958 8.07622 10.958 10.3314V42.998L18.1038 38.9147L25.2497 42.998L32.3955 38.9147L39.5413 42.998ZM21.1663 17.4772C21.1663 18.041 20.7093 18.498 20.1455 18.498C19.5817 18.498 19.1247 18.041 19.1247 17.4772C19.1247 16.9134 19.5817 16.4564 20.1455 16.4564C20.7093 16.4564 21.1663 16.9134 21.1663 17.4772ZM31.3747 27.6855C31.3747 28.2493 30.9176 28.7064 30.3538 28.7064C29.79 28.7064 29.333 28.2493 29.333 27.6855C29.333 27.1218 29.79 26.6647 30.3538 26.6647C30.9176 26.6647 31.3747 27.1218 31.3747 27.6855Z" stroke="#DDF247" stroke-width="4.08333" stroke-linecap="round" stroke-linejoin="round"/>
</svg>
