<svg width="39" height="39" viewBox="0 0 39 39" fill="none" xmlns="http://www.w3.org/2000/svg">
<path d="M4.63277 19.5C4.63277 11.1034 11.4395 4.29665 19.8361 4.29665C28.2327 4.29665 35.0395 11.1034 35.0395 19.5C35.0395 27.8966 28.2327 34.7033 19.8361 34.7033C11.4395 34.7033 4.63277 27.8966 4.63277 19.5Z" stroke="white" stroke-width="0.675704"/>
<g filter="url(#filter0_f_691_26863)">
<path d="M4.63277 19.5C4.63277 11.1034 11.4395 4.29665 19.8361 4.29665C28.2327 4.29665 35.0395 11.1034 35.0395 19.5C35.0395 27.8966 28.2327 34.7033 19.8361 34.7033C11.4395 34.7033 4.63277 27.8966 4.63277 19.5Z" stroke="white" stroke-width="0.675704"/>
</g>
<path d="M27.7901 14.7279C27.2227 14.978 26.6132 15.1469 25.9724 15.2232C26.6336 14.8298 27.1282 14.2107 27.364 13.4813C26.7428 13.8482 26.063 14.1064 25.3541 14.2448C24.8773 13.7386 24.2458 13.4031 23.5577 13.2904C22.8695 13.1776 22.1632 13.294 21.5483 13.6213C20.9335 13.9487 20.4445 14.4687 20.1573 15.1007C19.8702 15.7327 19.8009 16.4414 19.9602 17.1166C18.7015 17.0537 17.4702 16.7284 16.3462 16.1617C15.2222 15.595 14.2305 14.7997 13.4356 13.8272C13.1638 14.2935 13.0075 14.834 13.0075 15.4097C13.0072 15.928 13.1356 16.4383 13.3812 16.8954C13.6268 17.3525 13.982 17.7423 14.4155 18.0301C13.9128 18.0142 13.4213 17.8791 12.9817 17.6362V17.6767C12.9817 18.4036 13.2345 19.1081 13.6974 19.6707C14.1602 20.2333 14.8045 20.6194 15.521 20.7633C15.0547 20.8888 14.5659 20.9073 14.0913 20.8174C14.2935 21.4428 14.6873 21.9898 15.2175 22.3816C15.7478 22.7734 16.388 22.9906 17.0485 23.0026C15.9272 23.8779 14.5424 24.3527 13.1169 24.3506C12.8644 24.3507 12.6121 24.336 12.3613 24.3067C13.8083 25.2319 15.4927 25.7229 17.213 25.721C23.0363 25.721 26.2197 20.9248 26.2197 16.7652C26.2197 16.63 26.2163 16.4936 26.2102 16.3584C26.8294 15.9131 27.364 15.3617 27.7887 14.73L27.7901 14.7279Z" fill="white"/>
<defs>
<filter id="filter0_f_691_26863" x="0.67092" y="0.3348" width="38.3305" height="38.3304" filterUnits="userSpaceOnUse" color-interpolation-filters="sRGB">
<feFlood flood-opacity="0" result="BackgroundImageFix"/>
<feBlend mode="normal" in="SourceGraphic" in2="BackgroundImageFix" result="shape"/>
<feGaussianBlur stdDeviation="1.812" result="effect1_foregroundBlur_691_26863"/>
</filter>
</defs>
</svg>
