<svg width="39" height="39" viewBox="0 0 39 39" fill="none" xmlns="http://www.w3.org/2000/svg">
<path fill-rule="evenodd" clip-rule="evenodd" d="M4.6757 19.5412C4.6757 27.7512 11.3312 34.4067 19.5412 34.4067C27.7512 34.4067 34.4067 27.7512 34.4067 19.5412C34.4067 11.3312 27.7512 4.6757 19.5412 4.6757C11.3312 4.6757 4.6757 11.3312 4.6757 19.5412ZM19.5412 4C10.958 4 4 10.958 4 19.5412C4 28.1244 10.958 35.0824 19.5412 35.0824C28.1244 35.0824 35.0824 28.1244 35.0824 19.5412C35.0824 10.958 28.1244 4 19.5412 4Z" fill="white"/>
<g filter="url(#filter0_f_2915_40964)">
<path fill-rule="evenodd" clip-rule="evenodd" d="M4.6757 19.5412C4.6757 27.7512 11.3312 34.4067 19.5412 34.4067C27.7512 34.4067 34.4067 27.7512 34.4067 19.5412C34.4067 11.3312 27.7512 4.6757 19.5412 4.6757C11.3312 4.6757 4.6757 11.3312 4.6757 19.5412ZM19.5412 4C10.958 4 4 10.958 4 19.5412C4 28.1244 10.958 35.0824 19.5412 35.0824C28.1244 35.0824 35.0824 28.1244 35.0824 19.5412C35.0824 10.958 28.1244 4 19.5412 4Z" fill="white"/>
</g>
<path fill-rule="evenodd" clip-rule="evenodd" d="M18.0186 19.9243L12.3041 26.4471H14.8355L19.2096 21.4411L23.0639 26.4481L28 26.4212L21.7417 18.1455L27.0824 12.0279L24.5916 12L20.5574 16.5976L17.1059 12.0075L12 12.002L18.0186 19.9243ZM25.0105 24.9456L23.7331 24.9416L14.9565 13.4517H16.3306L25.0105 24.9456Z" fill="white"/>
<defs>
<filter id="filter0_f_2915_40964" x="0.375998" y="0.375998" width="38.33" height="38.33" filterUnits="userSpaceOnUse" color-interpolation-filters="sRGB">
<feFlood flood-opacity="0" result="BackgroundImageFix"/>
<feBlend mode="normal" in="SourceGraphic" in2="BackgroundImageFix" result="shape"/>
<feGaussianBlur stdDeviation="1.812" result="effect1_foregroundBlur_2915_40964"/>
</filter>
</defs>
</svg>
