

<svg xmlns="http://www.w3.org/2000/svg" width="164" height="32" viewBox="0 0 164 32" fill="none">
  <path d="M61.8031 27.2284L53.2256 7.34675H58.196L65.6942 24.9562H62.7688L70.3806 7.34675H74.9534L66.3475 27.2284H61.8031Z" fill="white"/>
  <path d="M86.8087 27.2284V24.2462L86.5247 23.5929V18.2533C86.5247 17.3065 86.2312 16.568 85.6442 16.0379C85.0762 15.5077 84.1957 15.2426 83.0028 15.2426C82.1886 15.2426 81.3839 15.3751 80.5886 15.6402C79.8123 15.8864 79.1495 16.2272 78.6004 16.6627L77.0099 13.5669C77.843 12.9799 78.8466 12.5254 80.0205 12.2036C81.1945 11.8817 82.3874 11.7207 83.5992 11.7207C85.9282 11.7207 87.7365 12.2698 89.0241 13.368C90.3117 14.4663 90.9555 16.1799 90.9555 18.5089V27.2284H86.8087ZM82.1507 27.4556C80.9578 27.4556 79.9353 27.2568 79.0833 26.8592C78.2312 26.4426 77.5779 25.884 77.1235 25.1834C76.6691 24.4828 76.4418 23.697 76.4418 22.826C76.4418 21.9172 76.6596 21.1219 77.0951 20.4402C77.5495 19.7586 78.2596 19.2284 79.2253 18.8497C80.1909 18.4521 81.4501 18.2533 83.0028 18.2533H87.0643V20.8379H83.4856C82.4442 20.8379 81.7247 21.0083 81.327 21.3491C80.9483 21.6899 80.759 22.116 80.759 22.6272C80.759 23.1953 80.9768 23.6497 81.4123 23.9905C81.8667 24.3124 82.4821 24.4734 83.2584 24.4734C83.9969 24.4734 84.6596 24.303 85.2466 23.9621C85.8336 23.6024 86.2596 23.0817 86.5247 22.4L87.2063 24.445C86.8844 25.4296 86.2975 26.1775 85.4454 26.6888C84.5933 27.2 83.4951 27.4556 82.1507 27.4556Z" fill="white"/>
  <path d="M103.685 27.4556C102.416 27.4556 101.28 27.2095 100.277 26.7172C99.2921 26.2249 98.5253 25.4769 97.9762 24.4734C97.427 23.4509 97.1525 22.1538 97.1525 20.5822V11.9479H101.583V19.929C101.583 21.1976 101.848 22.1349 102.379 22.7408C102.928 23.3278 103.695 23.6213 104.679 23.6213C105.361 23.6213 105.967 23.4793 106.497 23.1953C107.027 22.8923 107.444 22.4379 107.747 21.832C108.05 21.2071 108.201 20.4308 108.201 19.503V11.9479H112.632V27.2284H108.428V23.0249L109.195 24.2462C108.684 25.3065 107.926 26.1112 106.923 26.6604C105.938 27.1905 104.859 27.4556 103.685 27.4556Z" fill="white"/>
  <path d="M119.009 27.2284V6.15385H123.44V27.2284H119.009Z" fill="white"/>
  <path d="M137.182 27.4556C135.383 27.4556 133.982 27.0012 132.978 26.0923C131.975 25.1645 131.473 23.7917 131.473 21.974V8.56805H135.904V21.9172C135.904 22.5609 136.074 23.0627 136.415 23.4225C136.756 23.7633 137.22 23.9337 137.807 23.9337C138.507 23.9337 139.104 23.7444 139.596 23.3657L140.789 26.4899C140.335 26.8118 139.785 27.058 139.142 27.2284C138.517 27.3799 137.864 27.4556 137.182 27.4556ZM129.116 15.697V12.2888H139.71V15.697H129.116Z" fill="white"/>
  <path d="M143.589 27.2284L152.138 15.4414V18.7929L143.958 7.34675H149.184L154.836 15.3278L152.649 15.3562L158.216 7.34675H163.215L155.092 18.5941V15.2994L163.697 27.2284H158.386L152.535 18.7929H154.637L148.871 27.2284H143.589Z" fill="white"/>
  <path d="M0.30249 8.28402C0.30249 5.06835 2.90931 2.46154 6.12498 2.46154C9.34064 2.46154 11.9475 5.06835 11.9475 8.28402V26.1775C11.9475 29.3932 9.34064 32 6.12498 32C2.90931 32 0.30249 29.3932 0.30249 26.1775V8.28402Z" fill="url(#paint0_linear_2533_6846)"/>
  <path d="M35.5215 5.82248C35.5215 2.60682 38.1283 0 41.3439 0C44.5596 0 47.1664 2.60682 47.1664 5.82248V23.716C47.1664 26.9316 44.5596 29.5385 41.3439 29.5385C38.1283 29.5385 35.5215 26.9316 35.5215 23.716V5.82248Z" fill="url(#paint1_linear_2533_6846)"/>
  <path d="M29.5556 14.9114C29.5556 18.1271 26.9488 20.7339 23.7332 20.7339C20.5175 20.7339 17.9107 18.1271 17.9107 14.9114C17.9107 11.6958 20.5175 9.08894 23.7332 9.08894C26.9488 9.08894 29.5556 11.6958 29.5556 14.9114Z" fill="url(#paint2_linear_2533_6846)"/>
  <defs>
    <linearGradient id="paint0_linear_2533_6846" x1="0.302484" y1="29.0667" x2="1.5195" y2="-2.44188" gradientUnits="userSpaceOnUse">
      <stop stop-color="#A7F6FA"/>
      <stop offset="1" stop-color="#00B5E9"/>
    </linearGradient>
    <linearGradient id="paint1_linear_2533_6846" x1="151.04" y1="3.82222" x2="149.938" y2="33.7731" gradientUnits="userSpaceOnUse">
      <stop stop-color="#E667DB"/>
      <stop offset="0.9999" stop-color="#FED9FD"/>
    </linearGradient>
    <linearGradient id="paint2_linear_2533_6846" x1="26.9134" y1="10.0073" x2="20.7954" y2="19.649" gradientUnits="userSpaceOnUse">
      <stop stop-color="#F288EA"/>
      <stop offset="0.305555" stop-color="#FEE1FD"/>
      <stop offset="0.683183" stop-color="#C1F0ED"/>
      <stop offset="1" stop-color="#51D7FE"/>
    </linearGradient>
  </defs>
</svg>