<svg width="135" height="24" viewBox="0 0 135 24" fill="none" xmlns="http://www.w3.org/2000/svg">
<path d="M51.5317 20.5371L44.5625 4.38329H48.601L54.6933 18.691H52.3163L58.501 4.38329H62.2163L55.224 20.5371H51.5317Z" fill="white"/>
<path d="M71.8488 20.5371V18.1141L71.618 17.5833V13.2448C71.618 12.4756 71.3796 11.8756 70.9026 11.4448C70.4411 11.0141 69.7257 10.7987 68.7565 10.7987C68.095 10.7987 67.4411 10.9064 66.795 11.1218C66.1642 11.3218 65.6257 11.5987 65.1796 11.9525L63.8873 9.43714C64.5642 8.96022 65.3796 8.59099 66.3334 8.32945C67.2873 8.06791 68.2565 7.93714 69.2411 7.93714C71.1334 7.93714 72.6026 8.38329 73.6488 9.2756C74.695 10.1679 75.218 11.5602 75.218 13.4525V20.5371H71.8488ZM68.0642 20.7218C67.095 20.7218 66.2642 20.5602 65.5719 20.2371C64.8796 19.8987 64.3488 19.4448 63.9796 18.8756C63.6103 18.3064 63.4257 17.6679 63.4257 16.9602C63.4257 16.2218 63.6026 15.5756 63.9565 15.0218C64.3257 14.4679 64.9026 14.0371 65.6873 13.7294C66.4719 13.4064 67.495 13.2448 68.7565 13.2448H72.0565V15.3448H69.1488C68.3026 15.3448 67.718 15.4833 67.395 15.7602C67.0873 16.0371 66.9334 16.3833 66.9334 16.7987C66.9334 17.2602 67.1103 17.6294 67.4642 17.9064C67.8334 18.1679 68.3334 18.2987 68.9642 18.2987C69.5642 18.2987 70.1026 18.1602 70.5796 17.8833C71.0565 17.591 71.4026 17.1679 71.618 16.6141L72.1719 18.2756C71.9103 19.0756 71.4334 19.6833 70.7411 20.0987C70.0488 20.5141 69.1565 20.7218 68.0642 20.7218Z" fill="white"/>
<path d="M85.5608 20.7218C84.53 20.7218 83.607 20.5218 82.7916 20.1218C81.9916 19.7218 81.3685 19.1141 80.9224 18.2987C80.4762 17.4679 80.2531 16.4141 80.2531 15.1371V8.12175H83.8531V14.6064C83.8531 15.6371 84.0685 16.3987 84.4993 16.891C84.9454 17.3679 85.5685 17.6064 86.3685 17.6064C86.9224 17.6064 87.4147 17.491 87.8454 17.2602C88.2762 17.0141 88.6147 16.6448 88.8608 16.1525C89.107 15.6448 89.23 15.0141 89.23 14.2602V8.12175H92.83V20.5371H89.4147V17.1218L90.0377 18.1141C89.6224 18.9756 89.007 19.6294 88.1916 20.0756C87.3916 20.5064 86.5147 20.7218 85.5608 20.7218Z" fill="white"/>
<path d="M98.0114 20.5371V3.41406H101.611V20.5371H98.0114Z" fill="white"/>
<path d="M112.777 20.7218C111.315 20.7218 110.177 20.3525 109.362 19.6141C108.546 18.8602 108.139 17.7448 108.139 16.2679V5.3756H111.739V16.2218C111.739 16.7448 111.877 17.1525 112.154 17.4448C112.431 17.7218 112.808 17.8602 113.285 17.8602C113.854 17.8602 114.339 17.7064 114.739 17.3987L115.708 19.9371C115.339 20.1987 114.892 20.3987 114.369 20.5371C113.862 20.6602 113.331 20.7218 112.777 20.7218ZM106.223 11.1679V8.39868H114.831V11.1679H106.223Z" fill="white"/>
<path d="M117.982 20.5371L124.929 10.9602V13.6833L118.282 4.38329H122.529L127.121 10.8679L125.344 10.891L129.867 4.38329H133.929L127.329 13.5218V10.8448L134.321 20.5371H130.006L125.252 13.6833H126.959L122.275 20.5371H117.982Z" fill="white"/>
<path d="M0 4.73077C0 2.11804 2.11804 0 4.73077 0C7.3435 0 9.46154 2.11804 9.46154 4.73077V19.2692C9.46154 21.882 7.3435 24 4.73077 24C2.11804 24 0 21.882 0 19.2692V4.73077Z" fill="url(#paint0_linear_140_24229)"/>
<rect x="28.6152" width="9.46154" height="24" rx="4.73077" fill="url(#paint1_linear_140_24229)"/>
<circle cx="19.0374" cy="12.1175" r="4.73077" fill="url(#paint2_linear_140_24229)"/>
<defs>
<linearGradient id="paint0_linear_140_24229" x1="-3.77639e-07" y1="21.8" x2="9.46974" y2="2.87077" gradientUnits="userSpaceOnUse">
<stop stop-color="#A7F6FA"/>
<stop offset="1" stop-color="#00B5E9"/>
</linearGradient>
<linearGradient id="paint1_linear_140_24229" x1="37.3438" y1="2.86667" x2="28.6075" y2="21.1963" gradientUnits="userSpaceOnUse">
<stop stop-color="#E667DB"/>
<stop offset="0.9999" stop-color="#FED9FD"/>
</linearGradient>
<linearGradient id="paint2_linear_140_24229" x1="21.6214" y1="8.13285" x2="16.6505" y2="15.9668" gradientUnits="userSpaceOnUse">
<stop stop-color="#F288EA"/>
<stop offset="0.305555" stop-color="#FEE1FD"/>
<stop offset="0.683183" stop-color="#C1F0ED"/>
<stop offset="1" stop-color="#51D7FE"/>
</linearGradient>
</defs>
</svg>
